<svg width="512" height="142" viewBox="0 0 512 142" fill="none" xmlns="http://www.w3.org/2000/svg">
<path d="M0 71C0 109.8 0.1 141.53 0.23 141.53C0.42 141.53 26.82 136.7 30.06 136.06L31.74 135.74V109.83V83.95H41.78H51.82V79.22C51.82 76.63 51.92 69.88 52.05 64.19L52.24 53.89H42H31.74V42.53V31.17H43.56C50.07 31.17 55.38 31.11 55.38 31.01C55.38 30.66 57.97 3.33997 58.13 1.96997L58.32 0.469971H29.15H0V71Z" fill="white"/>
<path d="M484.41 4.59991L458.57 6.70992V70.4299V134.15L459.64 134.31C460.58 134.47 510.61 138.05 511.62 138.02C511.91 138.02 512.01 134.63 512.01 122.19V106.36H501H489.99V94.8399V83.3199H499.38H508.77V69.5699V55.8199H499.06H489.34V46.6999V37.5799L490.08 37.4499C490.47 37.3499 493.77 37.2299 497.43 37.0999C501.09 36.9999 505.85 36.8399 508.05 36.7199L512 36.5299V19.4799V2.3999L511.13 2.4299C510.61 2.4499 498.59 3.40991 484.41 4.59991Z" fill="white"/>
<path d="M318.5 9.00995C318.82 12.2099 322.52 60.4099 322.45 60.4799C322.42 60.5399 317.66 49 311.86 34.83C306.1 20.66 301.24 8.91995 301.11 8.69995C300.92 8.34995 291.98 9.97996 277.31 13.05L275.92 13.34V68.33V123.32H290.33H304.74L304.58 121.02C304.26 116.73 303.06 81.29 303.19 79.88C303.29 78.63 304.26 80.81 313.46 102.75C319.03 116.09 323.76 127.12 323.89 127.32C324.08 127.51 328.59 127.22 336.23 126.58C342.87 126 348.31 125.49 348.31 125.46C348.34 125.43 348.18 102.37 347.95 74.22C347.72 46.07 347.53 19.49 347.53 15.11L347.5 7.20996H332.93H318.32L318.5 9.00995Z" fill="white"/>
<path d="M90.51 9.13995C71.14 10.42 60.49 23.5 57.12 50.05C56.44 55.55 56.15 74.23 56.63 80.76C58.25 101.93 64.05 115.69 74.34 122.69C79.88 126.43 88.2 128.45 96.43 127.97C105.79 127.46 112.17 124.84 117.9 119.17C122.6 114.53 125.15 110.18 127.62 102.76C131.05 92.4 132.61 76.9099 131.83 60.7899C130.96 42.7499 128.2 31.52 122.54 22.92C117.13 14.73 108.58 9.83995 98.61 9.22995C97.02 9.12995 95.34 9.03996 94.89 8.96996C94.43 8.94996 92.49 9.00995 90.51 9.13995ZM95.08 34.28C97.44 36.81 98.45 46.88 98.45 68.44C98.45 94.99 96.77 106.02 93.07 103.66C91.48 102.6 90.28 97.45 89.7 88.91C89.28 82.67 89.28 54.11 89.7 48.13C90.32 39.69 91.42 35.0199 93.07 33.8999C93.98 33.2599 94.14 33.29 95.08 34.28Z" fill="white"/>
<path d="M136.01 67.2899V125.54H150.87H165.7L165.89 121.48C166.02 119.21 166.28 111.85 166.47 105.07C166.66 98.2899 166.92 92.3399 167.05 91.8599C167.21 91.1899 168.6 95.5099 172.88 110.09C175.99 120.61 178.61 129.35 178.74 129.47L209.7 127.07C209.8 126.94 206.43 116.48 202.22 103.75L194.58 80.6599L196.2 79.2499C201.58 74.6099 206.01 65.6599 207.28 56.7999C207.83 52.9299 207.47 43.3299 206.63 39.7799C203.39 25.8699 194.81 15.0499 183.86 11.0199C179.1 9.28994 179.49 9.31994 156.98 9.19994L135.99 9.06995V67.2899H136.01ZM169.4 36.6499C171.7 37.7699 173.58 40.6499 174.58 44.6099C175.26 47.2599 175.16 55.6799 174.42 58.3599C173.03 63.4099 170.57 66.3599 166.87 67.4799L166.12 67.6699V51.6799V35.6499L167.19 35.8699C167.75 35.9699 168.76 36.3299 169.4 36.6499Z" fill="white"/>
<path d="M208.23 24.3V39.17H216.49H224.75V82.03V124.89H240.29H255.83V84.59V44.2899H264.25H272.67V29.42V14.55L271.96 14.42C271.28 14.26 209.52 9.39995 208.65 9.42995C208.33 9.42995 208.23 12.62 208.23 24.3Z" fill="white"/>
<path d="M354.29 70.68V128.74H370.32H386.35V70.68V12.62H370.32H354.29V70.68Z" fill="white"/>
<path d="M422.94 16.6499C405.39 17.5799 390.78 18.3499 390.49 18.3499C389.94 18.3799 389.91 19.3099 389.91 33.4199V48.4499H398.17H406.43V90.5099V132.57H422.14H437.85V88.7499V44.9299H446.59H455.33V29.8999C455.33 21.6199 455.23 14.8999 455.1 14.8999C454.94 14.9299 440.5 15.6899 422.94 16.6499Z" fill="white"/>
</svg>
