<svg width="112" height="62" viewBox="0 0 112 62" fill="none" xmlns="http://www.w3.org/2000/svg">
<g clip-path="url(#clip0_52_627)">
<path d="M0.197754 26.6855L3.70778 25.3976L9.26634 40.6686L13.712 39.0434L14.5069 42.2448L6.88148 45.0353L0.197754 26.6855Z" fill="white"/>
<path d="M17.326 34.4621L17.9009 36.6087C18.1577 37.5715 18.5735 38.2155 19.3929 37.9947C20.2674 37.7617 20.2001 36.9582 19.9494 36.026L19.8577 35.6887L23.3799 34.7381L23.435 34.9344C23.9731 36.9399 24.0893 39.853 20.1695 40.914C16.3599 41.9443 14.9595 39.9879 14.1401 36.9337L12.7887 31.8986C12.1283 29.4392 12.5502 26.5016 16.0725 25.5509C19.2034 24.7046 21.1479 26.2133 21.9979 29.3779L22.9519 32.9412L17.326 34.4621ZM18.7753 31.2791L18.3901 29.8379C18.0782 28.6788 17.6807 28.2127 16.8613 28.4334C16.1825 28.6174 15.9257 29.2307 16.2437 30.4205L16.6289 31.8618L18.7753 31.2791Z" fill="white"/>
<path d="M26.5596 19.1604L34.5458 17.8663L35.0717 21.1352L30.7728 21.8344L31.4822 26.2317L35.5181 25.5755L36.0501 28.875L32.0142 29.5312L33.3595 37.8598L29.666 38.4608L26.5596 19.1604Z" fill="white"/>
<path d="M47.2161 32.7203C47.3384 34.0941 47.5035 35.5476 47.6197 36.21L44.1586 36.5289C44.0485 36.2713 43.8712 35.6457 43.8223 35.4127C43.327 36.4307 42.4953 36.9153 41.3273 37.0256C38.9975 37.2403 37.8723 35.1674 37.6583 32.8L37.6339 32.5057C37.2792 28.599 39.8353 27.3908 42.691 27.1332L42.9539 27.1087L42.7949 25.3301C42.6971 24.2814 42.5137 23.8275 41.8104 23.8889C41.1439 23.9502 41.0155 24.4899 41.095 25.3976L41.1255 25.7471L37.5177 26.0783L37.4993 25.8453C37.2547 23.159 38.3187 21.3314 41.6942 21.0186C44.7212 20.7426 46.2499 22.0735 46.4945 24.7536L47.2161 32.7203ZM43.223 29.7336L42.8744 29.7642C41.7676 29.8685 41.0889 30.4266 41.2356 32.0334L41.254 32.2358C41.3518 33.2845 41.7493 33.8058 42.477 33.7445C43.2352 33.6771 43.5349 33.119 43.3881 31.5428L43.223 29.7336Z" fill="white"/>
<path d="M58.7492 34.6952C58.8104 38.3872 58.5108 41.2022 53.7838 41.2881C50.1943 41.3494 49.1609 39.2888 49.1303 37.2404V37.1545L52.8666 37.087V37.1484C52.8727 37.5286 53.0011 38.3198 53.9367 38.3014C54.9579 38.283 55.0925 37.5225 55.0619 35.8482L55.0313 34.1187C54.6094 35.1245 53.686 35.6335 52.4569 35.6581C49.6807 35.7071 49.0325 33.5483 48.9897 30.9725L48.8857 25.0848C48.849 22.9751 49.5033 20.4483 52.4263 20.3931C53.9428 20.3686 54.7133 21.0248 55.0252 21.9325C55.0435 21.4664 55.0925 20.8163 55.1475 20.5832L58.5658 20.5219C58.5536 21.5155 58.5475 22.9812 58.5841 24.7966L58.7492 34.6952ZM52.7198 30.6106C52.7382 31.8434 53.0439 32.4199 53.8022 32.4076C54.7072 32.3892 54.9274 31.7452 54.9029 30.2488L54.8173 25.4467C54.7989 24.5083 54.7011 23.6313 53.7655 23.6497C53.0378 23.662 52.6036 24.1404 52.6281 25.3118L52.7198 30.6106Z" fill="white"/>
<path d="M70.5511 25.925L70.2331 31.7145C70.0435 35.106 68.1479 36.6454 65.0537 36.4737C61.935 36.302 60.3634 34.5418 60.5469 31.1748L60.8771 25.2381C61.0667 21.8159 63.2191 20.4421 65.9893 20.5955C68.9061 20.7611 70.7406 22.4476 70.5511 25.925ZM64.6195 25.2749L64.2709 31.5919C64.2159 32.6161 64.4666 33.3029 65.286 33.352C66.1299 33.4011 66.399 32.7694 66.4601 31.6838L66.8087 25.3669C66.8576 24.4286 66.6925 23.7785 65.818 23.7294C65.0292 23.6803 64.6745 24.2507 64.6195 25.2749Z" fill="white"/>
<path d="M72.3367 21.264L73.8715 21.448L74.2813 17.989L77.9625 18.4245L77.5528 21.8834L79.2956 22.092L78.9042 25.4099L77.1614 25.2014L76.2258 33.1742C76.1463 33.8734 76.183 34.2904 77.0514 34.3947C77.2532 34.4192 77.5711 34.456 77.724 34.4131L77.3877 37.2956C76.7211 37.4795 75.7855 37.4305 75.2046 37.363C72.9726 37.0993 72.0798 36.1671 72.3978 33.4931L73.4251 24.7659L71.9453 24.5881L72.3367 21.264Z" fill="white"/>
<path d="M83.1604 31.5367L82.7629 33.7262C82.5856 34.7075 82.6834 35.468 83.515 35.6213C84.4078 35.7869 84.6891 35.0325 84.8665 34.0819L84.9276 33.7385L88.5171 34.3947L88.4804 34.5971C88.1074 36.6455 86.9639 39.3195 82.9708 38.5896C79.0939 37.8782 78.6658 35.5048 79.2284 32.3954L80.164 27.2682C80.6226 24.7598 82.2554 22.2944 85.851 22.9506C89.043 23.5332 90.156 25.735 89.5689 28.9609L88.9085 32.5916L83.1604 31.5367ZM85.8265 29.286L86.0956 27.814C86.3096 26.6304 86.1506 26.0355 85.319 25.8822C84.628 25.7534 84.1327 26.2011 83.9125 27.4093L83.6435 28.8812L85.8265 29.286Z" fill="white"/>
<path d="M99.5914 37.3201C98.9188 39.81 98.5335 41.2206 98.344 42.0486L94.8768 41.1041C94.9134 40.7484 95.0235 40.1106 95.1152 39.7732C94.1368 40.8097 93.0361 40.8465 91.8865 40.5337C90.4189 40.1351 89.1164 39.0189 89.9664 35.885L93.0178 24.6064L96.6562 25.5939L93.8311 36.026C93.5498 37.0747 93.6904 37.6574 94.3937 37.8475C95.1825 38.0622 95.6289 37.639 96.0203 36.1977L98.7353 26.1642L102.343 27.1455L99.5914 37.3201Z" fill="white"/>
<path d="M110.207 34.5173C108.507 33.8979 107.186 33.763 106.293 36.2407L103.523 43.9253L99.9827 42.6373L103.444 33.0515C104.337 30.5738 104.765 29.3902 105.193 28.1145L108.544 29.3288C108.489 29.6539 108.11 30.8805 107.871 31.5428C108.996 30.0525 110.403 29.7827 111.754 30.2426L110.207 34.5173Z" fill="white"/>
<path d="M52.5913 6.8087C53.2029 6.7167 53.6554 6.18313 53.6493 5.56371C53.6737 3.86488 55.0679 2.50336 56.7679 2.53402C58.4618 2.55856 59.8193 3.95687 59.7887 5.66183C59.7643 7.34226 58.3945 8.69151 56.719 8.69151C56.0463 8.69151 55.5082 9.23121 55.5021 9.90584V13.2606L49.9558 14.6466C49.595 14.7386 49.381 15.1005 49.4666 15.4623C49.4788 15.5175 49.5033 15.5788 49.5338 15.6279L50.0597 16.5724C50.2065 16.8483 50.5245 16.9833 50.8241 16.9035L56.7068 15.4255L62.5894 16.9035C62.8891 16.9833 63.207 16.8483 63.3538 16.5724L63.898 15.6279C64.0876 15.309 63.9836 14.8981 63.6657 14.7079C63.6045 14.6711 63.5372 14.6466 63.47 14.6282L57.9237 13.2422V10.9791C60.8833 10.3167 62.7484 7.37293 62.088 4.40458C61.4276 1.43623 58.4923 -0.434326 55.5327 0.228033C53.0194 0.792265 51.2338 3.03079 51.2399 5.61277C51.2399 6.28126 51.7842 6.8271 52.4568 6.82096C52.4996 6.82096 52.5424 6.81483 52.5913 6.8087Z" fill="white"/>
<path d="M83.9124 47.237H29.5315C28.8894 47.237 28.3635 46.7157 28.3635 46.0656V45.8449C28.3635 45.2009 28.8833 44.6735 29.5315 44.6735H83.9124C84.5545 44.6735 85.0804 45.1948 85.0804 45.8449V46.0718C85.0804 46.7157 84.5545 47.237 83.9124 47.237Z" fill="white"/>
<path d="M8.96069 51.9471H9.89018V59.5581H8.96069V51.9471Z" fill="white"/>
<path d="M16.8185 54.1674C17.1854 54.3514 17.4667 54.5905 17.6563 54.8849C17.8397 55.167 17.962 55.4921 18.0232 55.8662C18.0782 56.1238 18.1027 56.5286 18.1027 57.0867H14.079C14.0973 57.6509 14.2258 58.1047 14.4765 58.4482C14.7211 58.7916 15.1063 58.9572 15.62 58.9572C16.1031 58.9572 16.4883 58.7978 16.7757 58.4727C16.9347 58.2826 17.0509 58.0679 17.1182 57.8226H18.0354C18.011 58.025 17.9315 58.2519 17.7969 58.5034C17.6624 58.7548 17.5095 58.9572 17.3444 59.1167C17.0631 59.3926 16.7146 59.5828 16.3049 59.6748C16.0847 59.73 15.834 59.7606 15.5527 59.7606C14.8678 59.7606 14.2869 59.5092 13.8099 59.0063C13.333 58.5034 13.0945 57.7981 13.0945 56.8965C13.0945 56.0073 13.333 55.2836 13.8161 54.7255C14.293 54.1674 14.9229 53.8914 15.6934 53.8914C16.0786 53.8853 16.4516 53.9834 16.8185 54.1674ZM17.1549 56.3446C17.1182 55.9398 17.0326 55.6147 16.8919 55.3756C16.6412 54.9279 16.2193 54.7009 15.6261 54.7009C15.2042 54.7009 14.8495 54.8543 14.5621 55.167C14.2747 55.4798 14.1218 55.8723 14.1035 56.3446H17.1549Z" fill="white"/>
<path d="M21.839 52.3152C22.053 51.9962 22.475 51.8368 23.0926 51.8368C23.1537 51.8368 23.2088 51.8368 23.276 51.8429C23.3372 51.8429 23.4106 51.8491 23.49 51.8552V52.7077C23.3922 52.7015 23.3249 52.6954 23.276 52.6954C23.2332 52.6954 23.1904 52.6954 23.1537 52.6954C22.8663 52.6954 22.6951 52.769 22.6401 52.9162C22.585 53.0634 22.5544 53.4375 22.5544 54.0385H23.4839V54.7745H22.5544V59.5643H21.6372V54.7745H20.8667V54.0385H21.6372V53.1676C21.6494 52.7813 21.7167 52.4992 21.839 52.3152Z" fill="white"/>
<path d="M29.4277 56.2034C29.6417 56.1789 29.7824 56.0869 29.8558 55.9336C29.8986 55.8477 29.9169 55.7312 29.9169 55.5718C29.9169 55.2528 29.8068 55.0198 29.5806 54.8787C29.3543 54.7315 29.0302 54.6641 28.6144 54.6641C28.1313 54.6641 27.7889 54.799 27.581 55.0627C27.4648 55.2099 27.3914 55.4246 27.3608 55.7128H26.4925C26.5108 55.0259 26.731 54.5475 27.1529 54.2777C27.5749 54.0078 28.0702 53.8729 28.6328 53.8729C29.2809 53.8729 29.813 53.9956 30.2165 54.247C30.6201 54.4985 30.8219 54.8849 30.8219 55.4062V58.6014C30.8219 58.6996 30.8403 58.7732 30.8831 58.8345C30.9259 58.8958 31.0054 58.9203 31.1338 58.9203C31.1766 58.9203 31.2194 58.9203 31.2744 58.9142C31.3234 58.9081 31.3784 58.9019 31.4396 58.8897V59.5766C31.2928 59.6195 31.1827 59.644 31.1093 59.6563C31.036 59.6686 30.932 59.6747 30.7975 59.6747C30.4795 59.6747 30.2471 59.5582 30.1004 59.3313C30.027 59.2086 29.9719 59.0369 29.9414 58.8161C29.7518 59.0675 29.4766 59.2822 29.122 59.4662C28.7673 59.6502 28.3759 59.7422 27.9479 59.7422C27.4342 59.7422 27.0123 59.5827 26.6882 59.2761C26.3641 58.9633 26.199 58.5708 26.199 58.1047C26.199 57.5895 26.358 57.1909 26.6821 56.9087C27 56.6266 27.422 56.4488 27.9418 56.3874L29.4277 56.2034ZM27.4648 58.7241C27.6605 58.8774 27.8928 58.9571 28.1619 58.9571C28.4921 58.9571 28.804 58.8835 29.1097 58.7302C29.6234 58.4788 29.8863 58.0679 29.8863 57.4914V56.7431C29.7701 56.8167 29.6295 56.8781 29.4461 56.9271C29.2687 56.9762 29.0914 57.013 28.9202 57.0314L28.3576 57.105C28.0213 57.1479 27.7644 57.2215 27.5993 57.3196C27.3119 57.4791 27.1651 57.7428 27.1651 58.0924C27.1713 58.3561 27.2691 58.5708 27.4648 58.7241Z" fill="white"/>
<path d="M37.5363 54.2348C37.7136 54.3575 37.8909 54.5353 38.0744 54.7622V54.0631H38.9305V59.1105C38.9305 59.8158 38.8265 60.3739 38.6186 60.7787C38.2334 61.533 37.5057 61.9071 36.4417 61.9071C35.8485 61.9071 35.3471 61.7722 34.9435 61.5024C34.5399 61.2325 34.3136 60.8155 34.2647 60.2451H35.2125C35.2553 60.4966 35.3471 60.6867 35.4816 60.8216C35.6895 61.0301 36.0197 61.1344 36.4661 61.1344C37.1755 61.1344 37.6402 60.8829 37.8604 60.38C37.9888 60.0856 38.0499 59.5521 38.0377 58.7916C37.8542 59.0737 37.628 59.2884 37.3711 59.4233C37.1082 59.5582 36.7658 59.6318 36.3377 59.6318C35.7384 59.6318 35.2187 59.4172 34.7723 58.994C34.3259 58.5708 34.0996 57.8594 34.0996 56.8781C34.0996 55.9459 34.3259 55.2222 34.7784 54.7009C35.2309 54.1796 35.7751 53.9159 36.4111 53.9159C36.8391 53.9159 37.2122 54.0202 37.5363 54.2348ZM37.6524 55.2345C37.3711 54.9033 37.0104 54.7377 36.5762 54.7377C35.928 54.7377 35.4816 55.0444 35.237 55.6577C35.1086 55.9827 35.0474 56.4181 35.0474 56.9456C35.0474 57.5711 35.1759 58.0495 35.4266 58.3746C35.6773 58.6996 36.0197 58.8652 36.4417 58.8652C37.1082 58.8652 37.5729 58.5647 37.842 57.9575C37.9949 57.6141 38.0683 57.2154 38.0683 56.7616C38.0744 56.0747 37.9337 55.5657 37.6524 55.2345Z" fill="white"/>
<path d="M46.4702 54.5659C46.9594 55.0443 47.204 55.7434 47.204 56.6695C47.204 57.5649 46.99 58.3009 46.5558 58.8835C46.1216 59.4661 45.4551 59.7605 44.5501 59.7605C43.7918 59.7605 43.1925 59.5029 42.7461 58.9878C42.2997 58.4726 42.0796 57.7796 42.0796 56.9087C42.0796 55.9765 42.312 55.2344 42.7828 54.6824C43.2537 54.1305 43.8835 53.8545 44.6724 53.8545C45.3817 53.8484 45.981 54.0875 46.4702 54.5659ZM45.8954 58.2518C46.1216 57.7857 46.2378 57.2644 46.2378 56.694C46.2378 56.1789 46.1583 55.7557 45.9932 55.4307C45.7364 54.9216 45.29 54.664 44.654 54.664C44.0914 54.664 43.6817 54.8787 43.431 55.3141C43.1742 55.7496 43.0458 56.2709 43.0458 56.8903C43.0458 57.4791 43.1742 57.9697 43.431 58.3683C43.6878 58.7608 44.0914 58.9571 44.6479 58.9571C45.2472 58.9571 45.6691 58.7241 45.8954 58.2518Z" fill="white"/>
<path d="M50.653 52.4624H51.5947V54.014H52.4753V54.7745H51.5947V58.3991C51.5947 58.5892 51.662 58.7241 51.7904 58.7855C51.8638 58.8223 51.9861 58.8407 52.1512 58.8407C52.194 58.8407 52.2429 58.8407 52.2979 58.8345C52.3469 58.8345 52.408 58.8284 52.4814 58.8161V59.5582C52.3774 59.5889 52.2613 59.6134 52.1512 59.6257C52.035 59.638 51.9127 59.6441 51.7782 59.6441C51.344 59.6441 51.0505 59.5337 50.8976 59.3068C50.7447 59.086 50.6652 58.7916 50.6652 58.442V54.7684H49.9131V54.0079H50.6652V52.4624H50.653Z" fill="white"/>
<path d="M58.9389 54.1674C59.3058 54.3514 59.5871 54.5905 59.7767 54.8849C59.9601 55.167 60.0824 55.4921 60.1436 55.8662C60.1986 56.1238 60.2231 56.5286 60.2231 57.0867H56.1994C56.2177 57.6509 56.3461 58.1047 56.5968 58.4482C56.8414 58.7916 57.2267 58.9572 57.7403 58.9572C58.2234 58.9572 58.6087 58.7978 58.8961 58.4727C59.0551 58.2826 59.1713 58.0679 59.2385 57.8226H60.1558C60.1313 58.025 60.0518 58.2519 59.9173 58.5034C59.7828 58.7548 59.6299 58.9572 59.4648 59.1167C59.1835 59.3926 58.8349 59.5828 58.4252 59.6748C58.2051 59.73 57.9544 59.7606 57.6731 59.7606C56.9882 59.7606 56.4073 59.5092 55.9303 59.0063C55.4533 58.5034 55.2148 57.7981 55.2148 56.8965C55.2148 56.0073 55.4533 55.2836 55.9364 54.7255C56.4134 54.1674 57.0432 53.8914 57.8137 53.8914C58.1929 53.8853 58.572 53.9834 58.9389 54.1674ZM59.2691 56.3446C59.2324 55.9398 59.1468 55.6147 59.0062 55.3756C58.7554 54.9279 58.3335 54.7009 57.7403 54.7009C57.3184 54.7009 56.9637 54.8543 56.6763 55.167C56.3889 55.4798 56.2361 55.8723 56.2177 56.3446H59.2691Z" fill="white"/>
<path d="M64.4544 54.014V57.6999C64.4544 57.9821 64.4972 58.2151 64.5829 58.393C64.7418 58.7241 65.0415 58.8897 65.4818 58.8897C66.1116 58.8897 66.5397 58.6015 66.772 58.0189C66.8943 57.7061 66.9555 57.2829 66.9555 56.7371V54.014H67.885V59.5644H67.0044L67.0166 58.7425C66.9004 58.9511 66.7537 59.1289 66.5763 59.2761C66.2278 59.5644 65.8059 59.7116 65.3105 59.7116C64.5339 59.7116 64.008 59.4478 63.7267 58.9204C63.5739 58.6383 63.5005 58.258 63.5005 57.7858V54.014H64.4544Z" fill="white"/>
<path d="M71.5479 54.014H72.4284V54.9708C72.5018 54.7868 72.6791 54.5599 72.9604 54.29C73.2417 54.0202 73.5658 53.8914 73.9388 53.8914C73.9572 53.8914 73.9878 53.8914 74.0245 53.8975C74.0673 53.9036 74.1345 53.9098 74.2385 53.9159V54.9033C74.1834 54.891 74.1345 54.8849 74.0856 54.8849C74.0367 54.8849 73.9878 54.8788 73.9327 54.8788C73.4619 54.8788 73.1072 55.0321 72.8504 55.3326C72.5996 55.6331 72.4712 55.9827 72.4712 56.3752V59.5643H71.5417V54.014H71.5479Z" fill="white"/>
<path d="M76.8069 58.4297H77.8892V59.5581H76.8069V58.4297Z" fill="white"/>
<path d="M85.2945 54.3084C85.6859 54.615 85.9182 55.1363 85.9977 55.8784H85.0927C85.0377 55.535 84.9092 55.2528 84.7136 55.0259C84.5179 54.799 84.1999 54.6886 83.7657 54.6886C83.1726 54.6886 82.7506 54.9769 82.4938 55.5595C82.3287 55.9336 82.2431 56.3997 82.2431 56.9517C82.2431 57.5098 82.3593 57.9759 82.5917 58.3561C82.824 58.7364 83.197 58.9265 83.6985 58.9265C84.0837 58.9265 84.3895 58.8099 84.6157 58.5708C84.842 58.3377 84.9949 58.0127 85.0805 57.6018H85.9855C85.8815 58.3377 85.6247 58.8774 85.2089 59.2147C84.7931 59.552 84.2672 59.7238 83.6251 59.7238C82.9035 59.7238 82.3226 59.46 81.8945 58.9265C81.4665 58.399 81.2463 57.7367 81.2463 56.9394C81.2463 55.9643 81.4848 55.2038 81.9557 54.6641C82.4265 54.1244 83.0258 53.8484 83.7596 53.8484C84.3956 53.8484 84.9031 54.0017 85.2945 54.3084Z" fill="white"/>
<path d="M93.0544 54.5659C93.5436 55.0443 93.7882 55.7434 93.7882 56.6695C93.7882 57.5649 93.5742 58.3009 93.14 58.8835C92.7059 59.4661 92.0393 59.7605 91.1343 59.7605C90.376 59.7605 89.7768 59.5029 89.3304 58.9878C88.884 58.4726 88.6638 57.7796 88.6638 56.9087C88.6638 55.9765 88.8962 55.2344 89.3671 54.6824C89.8379 54.1305 90.4678 53.8545 91.2566 53.8545C91.9721 53.8484 92.5713 54.0875 93.0544 54.5659ZM92.4796 58.2518C92.7059 57.7857 92.822 57.2644 92.822 56.694C92.822 56.1789 92.7425 55.7557 92.5774 55.4307C92.3206 54.9216 91.8742 54.664 91.2382 54.664C90.6757 54.664 90.266 54.8787 90.0152 55.3141C89.7584 55.7496 89.63 56.2709 89.63 56.8903C89.63 57.4791 89.7584 57.9697 90.0152 58.3683C90.2721 58.7608 90.6757 58.9571 91.2321 58.9571C91.8375 58.9571 92.2533 58.7241 92.4796 58.2518Z" fill="white"/>
<path d="M97.0476 54.014H97.9649V54.799C98.185 54.523 98.3868 54.3268 98.5641 54.2041C98.8699 53.9956 99.2185 53.8914 99.6098 53.8914C100.05 53.8914 100.405 54.0017 100.674 54.2164C100.827 54.3391 100.961 54.5231 101.09 54.7684C101.298 54.474 101.542 54.2532 101.817 54.106C102.099 53.965 102.411 53.8914 102.759 53.8914C103.505 53.8914 104.007 54.1612 104.276 54.7009C104.422 54.9892 104.49 55.3817 104.49 55.8723V59.5643H103.523V55.7067C103.523 55.3387 103.432 55.0812 103.248 54.9462C103.065 54.8052 102.839 54.7377 102.576 54.7377C102.209 54.7377 101.897 54.8604 101.634 55.1057C101.371 55.351 101.236 55.7619 101.236 56.3323V59.5582H100.289V55.9336C100.289 55.5595 100.246 55.2835 100.154 55.1118C100.013 54.8542 99.7505 54.7254 99.3652 54.7254C99.0167 54.7254 98.6926 54.8604 98.4052 55.1363C98.1178 55.4123 97.971 55.903 97.971 56.6205V59.5643H97.0415V54.014H97.0476Z" fill="white"/>
</g>
<defs>
<clipPath id="clip0_52_627">
<rect width="111.544" height="61.8141" fill="white" transform="translate(0.197754 0.0930176)"/>
</clipPath>
</defs>
</svg>
