<svg width="144" height="121" viewBox="0 0 144 121" fill="none" xmlns="http://www.w3.org/2000/svg">
<path d="M66.7059 41.9254L71.4706 48.2939L76.7647 41.9254L89.4706 106.671L71.4706 121L54.5294 106.671L66.7059 41.9254Z" fill="#F6993E"/>
<path d="M92.6471 68.9912L83.1177 38.2105L97.4118 23.8816L144 25.4737C141.882 27.7734 136.482 32.5851 131.824 35.557C127.165 38.5289 120.706 41.9254 114.882 42.4561H102.706L114.882 59.9693L92.6471 68.9912Z" fill="#F6993E"/>
<path d="M71.4706 34.4956L49.7647 9.55263L54.5294 0H89.4706L93.7059 9.55263L71.4706 34.4956Z" fill="#F6993E"/>
<path d="M59.2941 38.2105L46.5882 25.4737H0C1.76471 26.8889 3.17647 31.3114 13.7647 36.6184C21.9598 40.7259 28.7647 42.633 30.1765 42.4561H40.7647L28.5882 59.9693L51.3529 68.9912L59.2941 38.2105Z" fill="#F6993E"/>
</svg>
