<svg width="118" height="133" viewBox="0 0 118 133" fill="none" xmlns="http://www.w3.org/2000/svg">
<path d="M68.2601 63.84C70.8 68.9472 72.1405 75.8987 72.4933 78.736L78.3139 64.904C77.9611 63.84 77.4673 59.584 78.3139 51.072C79.1605 42.56 89.6024 14.1867 94.7175 1.064C90.3079 7.09333 80.4305 20.748 76.1973 27.132C71.9641 33.516 64.9088 46.816 61.9103 52.668C62.9686 54.264 65.7202 58.7328 68.2601 63.84Z" fill="#F6993E"/>
<path d="M85.722 103.74C82.7587 106.294 78.843 110.833 77.2556 112.784L76.7265 97.356C77.2556 95.228 78.6314 89.908 79.9013 85.652C81.1713 81.396 84.6637 72.352 91.5426 60.116C93.3064 57.456 98.3157 50.7528 102.126 47.348C105.935 43.9432 112.179 39.9 118 36.708C110.063 45.752 111.121 44.688 103.713 57.988C97.6828 68.8143 96.6577 85.8293 96.8341 95.76C94.3647 97.356 88.6852 101.186 85.722 103.74Z" fill="#F6993E"/>
<path d="M64.5561 94.696C64.5561 115.125 61.0284 128.744 59.2646 133C45.7184 112.571 28.2212 98.952 21.1659 94.696C20.6368 88.312 19.0493 73.5224 16.9327 65.436C14.8161 57.3496 4.76233 42.9147 0 36.708C4.76233 38.836 16.2978 44.9008 24.3408 52.136C32.3839 59.3712 37.9223 70.756 39.6861 75.544C39.6861 70.5787 39.3686 57.8816 38.0987 46.816C36.8287 35.7504 27.3393 10.9947 22.7534 0C26.8102 6.20667 34.9238 15.96 41.2735 27.132C45.6429 34.8196 64.5561 69.16 64.5561 94.696Z" fill="#F6993E"/>
</svg>
