<svg width="121" height="119" viewBox="0 0 121 119" fill="none" xmlns="http://www.w3.org/2000/svg">
<path d="M76.421 75.4375L44.5789 75.4375L44.5789 43.5625L76.421 43.5625L76.421 75.4375Z" fill="white" fill-opacity="0.15"/>
<path d="M107.26 1.45538e-05L-4.90895e-06 2.39405e-05L4.46805e-06 107.371L23.3509 83.9961L23.3509 22.3125L84.9708 22.3125L107.26 1.45538e-05Z" fill="white" fill-opacity="0.15"/>
<path d="M37.6917 96.6875L97.6491 96.6875L97.6491 36.6682L121 13.2932L121 119L15.4023 119L37.6917 96.6875Z" fill="white" fill-opacity="0.15"/>
<path d="M107.26 1.45538e-05L-4.90895e-06 2.39405e-05L4.46805e-06 107.371L23.3509 83.9961L23.3509 22.3125L84.9708 22.3125L107.26 1.45538e-05Z" fill="#F6993E"/>
</svg>
