<svg width="121" height="119" viewBox="0 0 121 119" fill="none" xmlns="http://www.w3.org/2000/svg">
<path d="M76.4211 75.4375L44.579 75.4375L44.579 43.5625L76.4211 43.5625L76.4211 75.4375Z" fill="#F6993E"/>
<path d="M107.26 2.27529e-06L4.86622e-06 1.1662e-05L1.42432e-05 107.371L23.3509 83.9961L23.3509 22.3125L84.9708 22.3125L107.26 2.27529e-06Z" fill="white" fill-opacity="0.15"/>
<path d="M37.6918 96.6875L97.6491 96.6875L97.6491 36.6682L121 13.2932L121 119L15.4023 119L37.6918 96.6875Z" fill="#F6993E"/>
<path d="M107.26 2.27529e-06L4.86622e-06 1.1662e-05L1.42432e-05 107.371L23.3509 83.9961L23.3509 22.3125L84.9708 22.3125L107.26 2.27529e-06Z" fill="#F6993E"/>
</svg>
