<svg width="85" height="78" viewBox="0 0 85 78" fill="none" xmlns="http://www.w3.org/2000/svg">
<g clip-path="url(#clip0_52_658)">
<path d="M0.488892 77.5643V46.0232C0.819698 42.4904 2.94544 39.3198 6.03909 37.2816C7.58286 36.2569 9.32878 35.6228 11.0012 34.8132C15.4426 32.6674 20.1841 30.2159 24.3805 27.6965C25.8079 26.8359 27.5538 25.5733 26.7941 23.8012C26.7084 23.6031 26.4695 23.4276 26.543 23.2238C29.0424 25.0638 28.975 28.557 28.4359 31.2124C27.8785 33.9583 26.3531 37.1231 24.2947 39.1783C23.1859 40.288 21.4093 41.2675 20.031 42.1167C17.0721 43.9284 14.0275 45.6269 11.0318 47.3877C10.9644 47.9709 11.0134 48.5653 11.0012 49.1541C10.9154 53.1626 11.0318 57.2163 11.0012 61.2361C10.9828 63.4159 11.1237 65.6069 10.4498 67.7244C9.22464 71.5743 5.86144 74.7958 2.19193 76.8057C2.00815 76.9076 0.593034 77.6662 0.488892 77.5643Z" fill="white"/>
<path d="M28.5154 0.441359C28.5276 0.990539 28.5521 1.53972 28.5767 2.0889C28.7788 6.25022 28.8646 12.2006 25.9731 15.6429C24.2394 17.7094 20.1595 19.6174 17.6662 20.9762C15.5343 22.1368 13.3657 23.2408 11.2461 24.4072C11.2154 24.5374 11.3073 24.4808 11.3931 24.4977C12.6305 24.8035 13.4453 25.0979 13.9905 26.2642C16.8208 32.3052 5.20578 36.4552 1.93447 31.9145C-1.44711 27.221 1.62816 19.5042 4.96074 15.4221C6.84756 13.1121 9.85545 11.5835 12.5019 10.0718C16.637 7.71659 21.1213 5.6331 25.1583 3.20425C26.1507 2.60411 27.3392 1.78883 28.0804 0.933923C28.1233 0.877306 28.4112 0.328126 28.5154 0.441359Z" fill="white"/>
<path d="M25.8323 58.1336L27.0759 58.0827C27.0636 59.4358 26.402 60.1831 24.8705 59.9737C23.9393 59.8491 23.5656 59.1018 23.5105 58.3148C23.4125 58.2525 22.8244 58.881 22.6896 58.9772C20.3127 60.704 14.7074 60.5568 14.4317 56.9617C14.1009 52.6305 18.5974 53.0155 21.7523 52.3361C22.2914 52.2172 23.2716 51.9511 23.3757 51.351C23.8168 48.7013 19.9574 48.4918 18.2298 49.426C17.4702 49.8393 17.3048 50.5413 17.1884 51.3C15.6814 51.4925 14.7809 50.2583 15.6324 49.0523C17.0108 47.0991 20.1228 46.9066 22.4017 47.2293C23.7923 47.4274 25.4157 48.2427 25.5688 49.6808C25.82 52.036 25.5015 54.5894 25.6301 56.9673C25.6485 57.1428 25.7342 58.0713 25.8323 58.1336ZM23.388 53.5137C22.9714 53.6383 22.5793 53.7572 22.1505 53.8421C20.619 54.1422 17.5315 54.0289 16.9495 55.6878C15.8468 58.83 21.6175 58.83 23.0388 56.5767C23.1246 56.4351 23.388 55.869 23.388 55.7444V53.5137Z" fill="white"/>
<path d="M52.1437 58.4507C49.3993 55.9822 49.5157 50.6659 52.5113 48.3729C54.8147 46.6065 58.8579 46.6971 61.0755 48.5484C63.673 50.7055 63.8506 55.6029 61.6697 58.0544C59.4399 60.5625 54.6187 60.6814 52.1437 58.4507ZM56.3401 48.9617C50.7715 49.4486 51.5005 59.2207 57.4856 58.111C62.4171 57.2051 61.6759 48.4975 56.3401 48.9617Z" fill="white"/>
<path d="M67.8019 65.1654L67.955 65.5957C69.1619 64.0613 72.0472 63.9594 73.7625 64.7407C76.9052 66.1675 77.3708 70.8836 75.5575 73.3748C74.1975 75.2431 71.0426 75.7357 68.9658 74.66C68.5309 74.4335 68.2613 74.1391 67.8938 73.8617C67.7529 73.89 67.8754 74.2297 67.8693 74.3542C67.857 74.575 67.7713 74.7902 67.8019 75.0167C67.2689 74.9714 66.7421 74.943 66.203 74.9544C66.0805 74.96 65.6088 75.0789 65.6088 74.9261V61.6268C65.6088 61.2701 67.0423 60.8059 67.3302 60.5568C67.514 60.3983 67.5936 60.0076 67.8019 60.2397V65.1654ZM70.9813 65.8448C66.8156 65.9637 66.6747 72.752 70.2401 73.5503C72.2678 74.0032 73.9402 73.0747 74.4058 71.2064C74.9877 68.8454 74.1546 65.7542 70.9813 65.8448Z" fill="white"/>
<path d="M79.1289 57.3296L79.3189 57.188L82.9393 47.4217C83.944 47.3198 84.7588 48.2256 84.5689 49.1428C82.6576 53.8476 80.8687 58.6544 78.596 63.2234C77.8241 64.3557 76.262 65.1766 74.9449 64.2368C74.4058 63.8461 74.173 63.2007 74.0627 62.5949C74.3322 62.5553 74.5528 62.7081 74.7978 62.7534C75.5942 62.8893 76.3416 62.8497 76.8684 62.2099C77.1257 61.8929 77.8792 60.2736 77.9772 59.8773C78.0079 59.7528 78.0324 59.6339 78.0018 59.5036L72.813 47.3877C74.1178 47.416 75.4104 48.0614 75.9924 49.1598L79.1289 57.3296Z" fill="white"/>
<path d="M34.1331 47.116C35.879 47.0311 38.0477 47.4614 39.2116 48.7466C40.3449 49.9978 40.0938 51.4246 38.1273 51.4246C37.7536 50.8867 37.7107 50.3432 37.2084 49.8393C35.5176 48.1408 32.2095 48.9334 31.1926 50.9886C29.7285 53.927 30.8986 58.8526 35.3461 58.1223C37.2023 57.8166 37.625 56.8144 38.0844 55.3368C38.1885 55.0027 38.9482 55.3537 39.1687 55.4896C40.5409 56.3389 39.5853 57.9298 38.6786 58.7168C37.1042 60.0869 34.3659 60.2624 32.3627 59.7528C26.3469 58.2129 26.7635 47.484 34.1331 47.116Z" fill="white"/>
<path d="M60.9836 64.5596V73.5503C60.9836 73.5843 60.8979 73.907 60.8733 73.9692C60.6283 74.6147 59.8809 75.0053 59.1703 75.028V73.522C58.8211 73.7598 58.6557 74.1278 58.3249 74.3882C56.9098 75.5149 53.6691 75.5545 52.4133 74.1844C52.0518 73.7881 51.5985 72.7293 51.5985 72.2198V64.5596H52.6338C52.9156 64.5596 53.4853 65.1031 53.4731 65.4032C53.5895 67.5772 53.3077 69.8929 53.5405 72.0443C53.7733 74.207 57.4611 74.0315 58.57 72.3557C59.5562 70.8667 58.7844 67.3281 59.0478 65.5164C59.0968 65.188 59.5869 64.5596 59.9483 64.5596H60.9836Z" fill="white"/>
<path d="M45.9074 47.3878H48.5355C48.5722 48.0389 48.2047 48.7013 47.5798 49.0184C47.5063 49.058 47.0407 49.2392 47.004 49.2392H45.9074C45.9319 49.4487 45.84 49.6412 45.84 49.845C45.8278 51.4755 45.8768 53.1287 45.9074 54.7593C45.9196 55.467 45.7849 56.7239 45.9196 57.3523C46.0422 57.9185 47.1571 57.9355 47.6901 57.9695C47.9474 57.9864 48.2598 57.9355 48.5048 57.9695C48.5967 57.9808 48.6029 57.9355 48.5967 58.0544C48.4681 59.8944 46.8018 59.9567 45.2151 59.617C44.2656 59.4132 43.8797 58.9263 43.7143 58.0544L43.653 49.2392C42.4155 49.3807 41.319 48.5654 41.3986 47.3878H43.653V45.3949C43.653 44.8967 44.3759 44.172 44.8415 43.9455C45.0007 43.8663 45.644 43.6341 45.7849 43.7134C46.0422 43.8606 45.8461 44.5683 45.8461 44.8118C45.84 45.0665 45.9135 45.2873 45.9135 45.5081C45.9196 46.1309 45.9013 46.7594 45.9074 47.3878Z" fill="white"/>
<path d="M38.3478 68.1321C37.9864 66.258 35.928 65.6126 34.1515 66.3203C31.3212 67.447 31.4254 73.3974 34.9417 73.7428C36.4059 73.8843 37.6617 73.3861 38.2069 72.0896C38.3907 71.6536 38.2253 71.2007 38.9237 71.3366C39.8671 71.5177 40.0263 72.6387 39.622 73.3408C38.2008 75.8036 33.4715 75.8772 31.554 73.9239C29.1955 71.5121 29.8142 66.0882 33.3551 64.837C35.0336 64.2425 37.8822 64.4633 39.1871 65.7145C40.2714 66.745 40.155 68.1773 38.3478 68.1321Z" fill="white"/>
<path d="M65.6149 47.1274L65.7619 47.0481C66.0559 47.2519 67.71 47.2406 67.8386 47.4444C67.9489 47.6199 67.8141 47.8747 67.808 48.0502C67.7896 48.6107 67.8815 49.1429 67.8693 49.6978C68.0163 49.7261 67.9673 49.6808 68.0102 49.6242C68.537 48.8655 68.9291 48.0672 69.8909 47.6652C71.1099 47.1613 72.427 47.7728 72.6721 48.99C72.7027 49.1316 72.7578 49.2505 72.5924 49.2958C72.2065 49.392 71.7164 49.3581 71.2937 49.426C66.5889 50.196 68.0837 55.8973 67.7896 59.0225C67.3608 59.7585 66.2275 59.7189 65.768 60.4492L65.6149 60.3643V47.1274Z" fill="white"/>
<path d="M44.7802 62.2723C44.8476 61.8986 45.7481 62.3063 45.9625 62.4478C46.9304 63.0819 46.5506 63.8859 46.7221 64.8144C46.5077 68.0415 46.9978 71.5687 46.7221 74.7619C46.716 74.8581 46.7405 74.9657 46.618 75.011C46.1585 74.9317 45.6501 74.9487 45.1784 74.9544C45.0191 74.9601 44.8721 75.0733 44.774 74.9261V62.2723H44.7802Z" fill="white"/>
</g>
<defs>
<clipPath id="clip0_52_658">
<rect width="84.1229" height="77.1514" fill="white" transform="translate(0.470459 0.424316)"/>
</clipPath>
</defs>
</svg>
