<svg width="55" height="96" viewBox="0 0 55 96" fill="none" xmlns="http://www.w3.org/2000/svg">
<g clip-path="url(#clip0_51_2)">
<path d="M0.741943 44.7118V34.9656L0.862783 38.1957C0.960384 38.1864 0.974327 37.9401 0.978975 37.8657C1.03939 37.1221 1.00221 36.2855 1.03475 35.5326L1.21601 32.6929L1.41121 32.7068C8.56398 39.1299 16.5905 44.498 25.2584 48.6669C31.6211 51.7297 38.3044 54.1187 45.0529 56.1869C45.5873 56.3495 45.9871 56.1915 46.2427 56.8515C46.331 57.0792 46.7028 58.4363 46.6981 58.613C46.6981 58.6641 46.6935 58.7199 46.6656 58.7663C46.3496 58.8407 45.8709 58.7942 45.5269 58.7617C42.3944 58.4875 38.904 57.8368 35.804 57.2465C25.0818 55.2155 13.8577 51.8878 4.27882 46.6312C3.47942 46.1944 1.99682 45.4461 1.33685 44.9116C1.19277 44.7954 1.11376 44.6699 1.00221 44.5259L0.741943 44.7118Z" fill="white"/>
<path d="M29.906 95.5341L30.5613 95.2971C29.841 95.1902 29.2042 95.1623 28.5954 94.7254C28.3258 94.5302 28.0098 94.2746 28.0655 93.9074C28.0795 93.8284 28.3955 93.2335 28.4374 93.201C28.7813 92.9314 29.0555 93.4519 29.2786 93.6239C30.1059 94.2513 31.9371 94.5442 32.7132 93.7122C33.6009 92.7687 32.3693 92.0623 31.5188 91.8578C31.1888 91.7788 30.8263 91.7741 30.487 91.6905C28.7813 91.2861 27.6008 90.1056 28.5164 88.3163C29.3204 86.7407 32.3321 86.7639 33.5684 87.7725C34.0006 88.1211 33.7497 88.2466 33.5963 88.6184C33.5359 88.7671 33.5173 89.0831 33.3267 89.1296C33.099 89.1854 32.7829 88.795 32.6017 88.6788C31.8627 88.2233 29.6643 88.1071 29.497 89.2412C29.418 89.7942 29.7759 90.101 30.236 90.2683C31.3979 90.6959 32.9131 90.6308 33.7915 91.6161C34.6281 92.5549 34.3027 94.0933 33.3407 94.8137C32.7643 95.2459 32.0207 95.1995 31.3422 95.2924L32.2996 95.5295H29.906V95.5341Z" fill="white"/>
<path d="M24.0501 95.5342H22.7348C22.8417 95.3529 23.2507 95.5249 23.2136 95.2971C22.9486 95.3157 22.693 95.1856 22.4653 95.0601L20.8247 92.6944C20.6202 92.5085 19.8626 92.4435 19.6302 92.5736C19.3885 92.713 19.5698 93.3637 19.5744 93.5868C19.5791 93.8471 19.6163 94.9671 19.5419 95.1159C19.5187 95.167 19.4629 95.2088 19.4118 95.2228C19.2259 95.2739 18.3986 95.3529 18.287 95.1763C18.222 94.112 18.2777 93.0384 18.2638 91.974C18.2591 91.7324 18.0686 91.3931 18.4683 91.3466C19.4443 91.2304 21.4753 91.6301 22.205 91.0213C22.8232 90.5054 22.9022 89.8408 22.5536 89.1204C22.1353 88.2559 21.4242 88.5115 20.6202 88.4836C20.4807 88.479 20.3459 88.4186 20.2065 88.4186C19.6581 88.4139 18.9656 88.5441 18.4683 88.4836C18.38 88.4743 18.3149 88.4743 18.2638 88.3907V87.1637C18.5798 87.0382 18.8401 87.1591 19.1283 87.1683C20.3971 87.1916 22.1539 86.9546 23.1671 87.8516C24.3011 88.8601 24.25 91.091 23.0044 91.9973C22.7906 92.1553 22.1957 92.3226 22.219 92.5689L23.8689 94.8602L24.0501 95.5342Z" fill="white"/>
<path d="M8.93107 95.5342H8.51278C8.68939 95.2646 8.51743 95.2413 8.42447 94.995C7.80633 93.3869 7.17425 91.7835 6.54216 90.18L6.33302 90.2776L5.52432 92.6387C5.41743 92.8664 5.29194 92.9919 5.11068 92.7455C4.89224 92.4574 4.61803 91.6255 4.70168 91.2769C4.87365 90.5286 5.5708 89.2319 5.88219 88.4511C5.96585 88.2373 6.30513 87.08 6.44921 87.0428L6.72807 87.3589C7.2765 89.4271 8.60573 91.5557 9.18204 93.5728C9.32147 94.0608 9.29823 94.2235 9.13557 94.6929C9.04726 94.9532 8.76375 95.2413 8.93107 95.5342Z" fill="white"/>
<path d="M4.08818 95.5341C4.19972 95.3622 4.06494 95.1112 3.99523 94.9392C3.15865 92.7734 1.96419 90.4496 1.27634 88.2745C1.20197 88.0421 1.05325 87.5309 1.04395 87.3078C1.03931 87.238 1.06719 87.1079 1.13226 87.1079H2.08968C2.10827 87.1079 2.20122 87.1637 2.22446 87.1869L4.90617 93.926C4.98053 94.3722 4.35775 95.0554 4.4507 95.5434H4.08818V95.5341Z" fill="white"/>
<path d="M39.7686 95.5342H35.1069C35.2185 95.246 35.5159 95.4133 35.674 95.4133H38.8994C38.9227 95.4133 38.997 95.3529 39.076 95.3529C39.2898 95.3436 39.7732 95.2692 39.7686 95.5342Z" fill="white"/>
<path d="M12.6958 95.5341C12.7748 95.4133 12.9003 95.4226 13.0211 95.4133C14.2435 95.3296 15.8469 95.3761 17.0879 95.4179C17.204 95.4226 17.3295 95.3575 17.2924 95.5388H12.6958V95.5341Z" fill="white"/>
<path d="M45.2063 95.5341H42.8174C43.5796 95.2692 44.4394 95.3017 45.2063 95.5341Z" fill="white"/>
<path d="M49.6865 95.5341H48.4316C48.4735 95.4133 48.7151 95.4226 48.8174 95.418C49.0777 95.404 49.4913 95.3436 49.6865 95.5341Z" fill="white"/>
<path d="M26.6805 95.5341H25.4861C25.6627 95.4737 25.9973 95.4272 26.1786 95.4225C26.2715 95.4179 26.6387 95.4086 26.6805 95.5341Z" fill="white"/>
<path d="M54.5296 64.1437L54.4088 63.4559C54.3995 63.2188 54.418 62.9818 54.3995 62.7448C54.3948 62.6658 54.3669 62.3776 54.2879 62.3497C54.2368 62.8145 54.274 63.3583 54.2275 63.8137C53.8417 67.504 50.421 71.9658 47.9857 74.6661C45.5038 77.4175 41.9205 79.3649 38.7089 81.1728C36.1852 82.595 33.6058 83.9149 31.0728 85.3139C30.4639 85.5184 30.2966 85.193 29.8272 84.9421C26.9271 83.3897 24.0501 81.791 21.1639 80.22C20.9966 80.1271 20.1089 79.8482 20.3413 79.5972C21.968 79.1092 23.6876 78.849 25.3468 78.4446C33.062 76.567 45.2761 72.6443 49.0546 65.0361C50.3978 62.3358 50.7185 59.352 49.9702 56.4193C48.1995 49.4617 40.3263 44.9674 34.9908 40.8496C26.0208 33.9338 18.129 25.8237 14.7687 14.6832C14.1552 12.6428 13.486 9.90537 13.3512 7.79068C13.2908 6.81931 13.3884 7.02381 13.9786 6.50327C15.266 5.36459 16.4512 4.31886 17.9013 3.37074C19.6256 2.24135 21.5729 1.21887 23.5714 0.702974L23.4506 0.465942H24.2268L24.2825 4.26774C24.7891 14.9156 27.8241 25.5309 34.3262 34.0407C39.4479 40.7427 47.3071 45.0278 51.741 52.1946C53.1306 54.444 54.3576 57.1443 54.2879 59.8446L54.3902 59.682L54.5249 58.5898V64.1437H54.5296Z" fill="white"/>
<path d="M22.0561 34.9285L22.2234 35.1516C27.8006 40.9007 35.3205 44.2378 41.1115 49.7313C42.306 50.8607 43.6492 52.269 44.5601 53.6354C44.7135 53.8631 44.9273 54.1048 44.904 54.3976C44.8111 54.4905 42.715 53.654 42.4408 53.5471C31.8859 49.4571 21.3636 42.5181 13.0582 34.8681C9.5213 31.6054 6.19821 28.0127 3.32595 24.1598L3.31665 23.8205C4.26013 20.9669 5.44064 18.1922 6.9093 15.5756C7.09056 15.2549 8.23389 13.2517 8.39191 13.1727C8.46627 13.1355 8.55923 13.1216 8.63359 13.1727C9.14948 14.5205 9.64678 15.8823 10.2138 17.2116C13.0303 23.7741 16.9994 29.8858 22.0561 34.9285Z" fill="white"/>
<path d="M2.20605 52.6919C2.37802 52.6919 3.09376 53.0591 3.34009 53.1427C16.8834 57.9716 30.4407 60.012 44.8113 60.4396C45.3179 60.4535 46.1591 60.3559 46.6053 60.4396C46.6657 60.4535 46.7215 60.4721 46.7633 60.5232C46.8934 60.6859 46.7587 61.6619 46.6796 61.8896C46.5774 62.1964 46.3868 62.2568 46.1033 62.3265C43.826 62.875 41.372 63.3397 39.0621 63.772C28.8976 65.6775 18.3009 66.7558 7.99706 65.2917C7.48581 65.2174 6.55163 65.3057 6.25418 64.8827C6.0125 64.5435 5.69181 63.7766 5.49661 63.3676C3.93499 60.0678 2.85208 56.5727 1.95508 53.0405L1.96902 52.7848C1.99691 52.7291 2.14099 52.6919 2.20605 52.6919Z" fill="white"/>
<path d="M45.6804 64.0229C45.6944 64.2041 45.6014 64.3389 45.5177 64.4876C44.0491 66.9927 39.9034 69.2887 37.296 70.432C32.086 72.7233 26.0626 74.1595 20.4761 75.247C19.184 75.498 17.7711 75.7861 16.4791 75.9721C16.1584 76.0185 15.2567 76.1626 15.0058 76.0882C14.9221 76.065 14.1971 75.4143 14.0669 75.2935C12.984 74.3082 11.8453 73.0672 10.9019 71.9425C10.7531 71.7613 9.90726 70.7388 9.89332 70.6179C9.85614 70.2461 10.8833 70.5296 11.1064 70.5389C11.7152 70.5668 12.4077 70.5482 13.0259 70.5389C23.6365 70.3484 34.0705 68.2011 44.0073 64.5852C44.2396 64.5062 45.5549 63.902 45.6804 64.0229Z" fill="white"/>
<path d="M41.1859 87.1218C41.5159 87.0753 42.0318 86.9823 42.0922 87.3774C42.1433 87.7074 42.0922 88.2605 42.0969 88.6276C42.1108 89.8871 41.9853 91.3558 42.0922 92.5781C42.2874 94.8555 45.6198 94.73 45.7406 92.5177L45.7499 87.3263C45.829 87.0567 46.949 87.0474 47.0281 87.159L47.0466 92.3876C46.8933 93.3729 46.6516 94.414 45.7221 94.9485C45.2062 95.2459 43.8072 95.3435 43.203 95.297C41.1813 95.1297 40.7769 93.1266 40.7165 91.4441C40.67 90.0916 40.7583 88.7299 40.7212 87.3774C40.7537 87.159 41.0047 87.145 41.1859 87.1218Z" fill="white"/>
<path d="M48.4316 87.2519C48.6454 87.0428 48.9429 87.1683 49.1753 87.1636C50.8252 87.1543 53.637 86.8801 54.0321 89.0599C54.4504 91.3791 53.228 92.5689 50.9739 92.6061C50.7555 92.6107 49.6865 92.4155 49.6865 92.6944V95.1437L49.5982 95.232H48.5246L48.4363 95.1437V91.3791C48.4363 91.2025 48.9522 91.3465 49.0591 91.3512C49.7376 91.3744 51.8012 91.4488 52.2892 91.1095C53.2513 90.4495 53.005 88.6137 51.8105 88.4789C51.2249 88.4138 50.2163 88.4185 49.5982 88.4138C49.2589 88.4092 48.7477 88.6183 48.4316 88.3906V87.2519Z" fill="white"/>
<path d="M26.7411 87.0986H25.4258V95.2739H26.7411V87.0986Z" fill="white"/>
<path d="M12.0311 87.1125C12.1892 87.4797 11.8917 87.8144 11.7709 88.1211C11.3758 89.1389 10.9947 90.1661 10.5764 91.17C10.4788 91.407 9.88392 92.8478 9.80491 92.9082C9.59577 93.0662 9.53999 92.871 9.46098 92.7037C9.27508 92.3226 9.02875 91.6254 9.12635 91.2118C9.15424 91.0863 9.27508 90.9934 9.32155 90.8679C9.67478 89.9895 10.0466 89.1111 10.3952 88.2373C10.4835 88.0142 10.609 87.317 10.7484 87.2148L12.0311 87.1125Z" fill="white"/>
<path d="M39.155 87.1218C39.327 87.1125 39.6569 87.0242 39.7545 87.2055C39.8754 87.4286 39.8707 88.386 39.6058 88.4696L35.1952 88.4836C34.9117 88.4278 34.8838 87.2566 35.1487 87.1776C36.4826 87.1543 37.8258 87.1776 39.155 87.1218Z" fill="white"/>
<path d="M17.3573 87.1636V88.3302C17.3573 88.4046 17.1714 88.4743 17.0924 88.4836C16.0838 88.6184 14.9312 88.4232 13.9227 88.4139C13.5276 88.4139 13.0582 88.544 12.6399 88.4789V87.4936C12.6399 86.8848 13.351 87.159 13.6903 87.1683C14.6198 87.1915 15.6098 87.1869 16.5579 87.1683C16.8321 87.159 17.0691 87.0335 17.3573 87.1636Z" fill="white"/>
<path d="M35.0465 91.8857C34.986 91.6673 34.9117 90.8725 35.0697 90.7424C35.2463 90.603 36.5384 90.7099 36.8637 90.6262L39.169 90.6541C39.2712 90.7285 39.3781 91.7835 39.1364 91.8857H35.0465Z" fill="white"/>
<path d="M39.8243 95.0833C39.7314 95.3808 38.3975 95.1763 38.1233 95.1717C37.2588 95.1577 36.0597 95.2832 35.251 95.1763C35.1674 95.167 35.0976 95.1624 35.0372 95.088C34.935 94.8835 34.9396 94.1445 35.1906 94.0934L39.6152 94.0887L39.8197 94.1817V95.0833H39.8243Z" fill="white"/>
<path d="M16.7577 91.7974C16.5439 92.053 16.3162 91.8904 16.0745 91.8857C14.9405 91.8671 13.8065 91.8997 12.6724 91.8904C12.5655 91.8718 12.5516 90.9236 12.6167 90.7656C12.7189 90.5286 13.5415 90.6913 13.7972 90.6866C14.4432 90.6727 15.0706 90.6913 15.7167 90.6959C16.0188 90.7006 16.4835 90.4914 16.7624 90.7191V91.7974H16.7577Z" fill="white"/>
<path d="M12.7236 94.098H17.2039C17.3666 94.098 17.5153 95.074 17.2551 95.1623C16.042 95.2088 14.829 95.1345 13.6159 95.1716C13.3185 95.1809 12.8955 95.3575 12.6306 95.1437V94.1863L12.7236 94.098Z" fill="white"/>
</g>
<defs>
<clipPath id="clip0_51_2">
<rect width="53.7875" height="95.0682" fill="white" transform="translate(0.741943 0.465942)"/>
</clipPath>
</defs>
</svg>
