<svg width="244" height="385" viewBox="0 0 244 385" fill="none" xmlns="http://www.w3.org/2000/svg">
<path d="M121.83 381.22C117.69 381.22 113.71 379.97 110.31 377.62L3.59009 303.7V239.85L121.83 321.75L240.07 239.85V303.7L133.36 377.62C129.95 379.98 125.97 381.22 121.83 381.22Z" fill="#001220"/>
<path d="M236.89 245.91V302.04L131.55 375.01C128.63 377.03 125.23 378.05 121.83 378.05C118.43 378.05 115.04 377.04 112.11 375.01L6.76003 302.04V245.91L121.83 325.61L236.89 245.91ZM243.24 233.79L233.27 240.69L121.83 317.89L10.38 240.69L0.410034 233.79V245.91V302.04V305.37L3.14003 307.26L108.49 380.23C112.42 382.96 117.03 384.4 121.82 384.4C126.61 384.4 131.22 382.96 135.15 380.23L240.49 307.26L243.22 305.37V302.04V245.91V233.79H243.24Z" fill="white"/>
<path d="M3.59009 160.72V38.9C3.59009 19.2 19.6201 3.17001 39.3201 3.17001H204.35C224.05 3.17001 240.08 19.2 240.08 38.9V160.71L121.84 242.61L3.59009 160.72Z" fill="#001220"/>
<path d="M204.34 6.35C222.32 6.35 236.89 20.92 236.89 38.9V159.05L121.83 238.75L6.76003 159.05V38.9C6.76003 20.92 21.33 6.35 39.31 6.35H204.34ZM204.34 0H39.31C17.86 0 0.410034 17.45 0.410034 38.9V159.05V162.38L3.14003 164.27L118.21 243.97L121.83 246.47L125.45 243.97L240.51 164.27L243.24 162.38V159.05V38.9C243.24 17.45 225.79 0 204.34 0Z" fill="white"/>
<path d="M3.59009 232.21V168.36L121.83 250.26L240.06 168.36V232.21L121.83 314.11L3.59009 232.21Z" fill="#005B83"/>
<path d="M236.89 174.42V230.54L121.83 310.24L6.76003 230.54V174.42L121.83 254.12L236.89 174.42ZM243.24 162.3L233.27 169.2L121.83 246.4L10.38 169.2L0.410034 162.3V174.42V230.54V233.87L3.14003 235.76L118.21 315.46L121.83 317.96L125.45 315.46L240.51 235.76L243.24 233.87V230.54V174.42V162.3Z" fill="white"/>
<path d="M206.74 69.95C180.52 70.41 149.61 82.2 121.78 111.15C135.97 86.96 147.5 79.07 158.84 72.64C159.36 70.5 150.33 27.2 148.72 26.03C147.34 25.03 145.28 26.12 143.97 27.06C139.97 29.92 133.59 39.37 128.39 47.99C124.89 53.1 121.49 58 118.67 61.3C114.75 65.88 108.91 71.97 104.66 76.33C92.6501 88.64 79.2801 99.43 65.0301 107.86C65.0301 107.86 99.6701 76.13 103.02 60.6C103.02 60.6 59.4801 28.59 56.9201 26.68C54.3601 24.77 52.6901 26 52.6901 26L62.1401 80.45L32.3201 133.03C58.5401 132.57 87.0201 119.18 111.99 96.18C110.64 100.62 93.5001 121.17 80.7301 131.51C80.2101 133.65 88.7301 175.77 90.3401 176.95C91.7201 177.95 93.7801 176.86 95.0901 175.92C99.0901 173.06 105.47 163.61 110.67 154.99C114.17 149.88 117.57 144.98 120.39 141.68C124.31 137.1 130.08 130.43 134.33 126.07C146.34 113.76 159.78 103.54 174.03 95.12C174.03 95.12 142.7 121.96 136.04 142.38C135.88 142.86 179.63 174.38 182.14 176.3C184.65 178.23 186.37 176.98 186.37 176.98L176.92 122.53L206.74 69.95Z" fill="white"/>
<mask id="mask0_221_41" style="mask-type:luminance" maskUnits="userSpaceOnUse" x="32" y="25" width="175" height="153">
<path d="M206.74 69.95C180.52 70.41 149.64 82.17 121.81 111.12C136 86.93 147.5 79.07 158.84 72.64C159.36 70.5 150.33 27.2 148.72 26.03C147.34 25.03 145.28 26.12 143.97 27.06C139.97 29.92 133.59 39.37 128.39 47.99C124.89 53.1 121.49 58 118.67 61.3C114.75 65.88 108.91 71.97 104.66 76.33C92.6501 88.64 79.2801 99.43 65.0301 107.86C65.0301 107.86 99.6701 76.13 103.02 60.6C103.02 60.6 59.4801 28.59 56.9201 26.68C54.3601 24.77 52.6901 26 52.6901 26L62.1401 80.45L32.3201 133.03C58.5401 132.57 87.0201 119.18 111.99 96.18C110.64 100.62 93.5001 121.17 80.7301 131.51C80.2101 133.65 88.7301 175.77 90.3401 176.95C91.7201 177.95 93.7801 176.86 95.0901 175.92C99.0901 173.06 105.47 163.61 110.67 154.99C114.17 149.88 117.57 144.98 120.39 141.68C124.31 137.1 130.08 130.43 134.33 126.07C146.34 113.76 159.78 103.54 174.03 95.12C174.03 95.12 142.7 121.96 136.04 142.38C135.88 142.86 179.63 174.38 182.14 176.3C184.65 178.23 186.37 176.98 186.37 176.98L176.92 122.53L206.74 69.95Z" fill="white"/>
</mask>
<g mask="url(#mask0_221_41)">
<path d="M86.8301 196.09C86.8301 196.09 118.66 61.3 163.11 8.98001L226.08 38.26L219.49 125.9L201.76 168.96L184.03 189.22L86.8301 196.09Z" fill="url(#paint0_linear_221_41)"/>
</g>
<defs>
<linearGradient id="paint0_linear_221_41" x1="94.64" y1="89.806" x2="188.485" y2="129.192" gradientUnits="userSpaceOnUse">
<stop stop-color="#001220"/>
<stop offset="0.0641" stop-color="#243440"/>
<stop offset="0.2092" stop-color="#717B83"/>
<stop offset="0.3387" stop-color="#AEB4B8"/>
<stop offset="0.4479" stop-color="#DADDDF"/>
<stop offset="0.5324" stop-color="#F5F6F6"/>
<stop offset="0.582" stop-color="white"/>
</linearGradient>
</defs>
</svg>
