<svg width="571" height="479" viewBox="0 0 571 479" fill="none" xmlns="http://www.w3.org/2000/svg">
<g clip-path="url(#clip0_221_40)">
<path d="M8.2 408.15L38.73 465.49H38.89V408.15H46.2V478.86H37.76L7.47 422.12H7.31V478.86H0V408.15H8.2Z" fill="white"/>
<path d="M101.91 408.15V416.07H69.5901V438.55H99.7201V446.47H69.5901V470.93H102.15V478.85H61.8701V408.14H101.91V408.15Z" fill="white"/>
<path d="M128.7 478.86L108.32 408.15H116.6L133.16 469.45H133.32L150.05 408.15H158.09L137.46 478.86H128.7Z" fill="white"/>
<path d="M207.47 408.15V416.07H175.15V438.55H205.28V446.47H175.15V470.93H207.71V478.85H167.43V408.14H207.47V408.15Z" fill="white"/>
<path d="M247.5 408.15C253.02 408.15 257.34 409.8 260.45 413.1C263.56 416.4 265.12 420.92 265.12 426.67C265.12 430.96 264.32 434.72 262.72 437.96C261.12 441.2 258.56 443.41 255.05 444.59V444.79C256.73 445.19 258.09 445.85 259.15 446.77C260.21 447.7 261.04 448.8 261.67 450.09C262.29 451.38 262.75 452.81 263.05 454.4C263.35 455.98 263.58 457.64 263.74 459.35C263.85 461.07 263.93 462.82 263.98 464.6C264.03 466.38 264.17 468.13 264.39 469.85C264.61 471.57 264.92 473.2 265.32 474.75C265.73 476.3 266.33 477.67 267.15 478.86H258.54C258 478.13 257.63 477.14 257.44 475.89C257.25 474.64 257.13 473.23 257.07 471.68C257.02 470.13 256.96 468.46 256.91 466.68C256.86 464.9 256.69 463.15 256.42 461.43C256.2 459.71 255.93 458.08 255.61 456.53C255.29 454.98 254.77 453.63 254.07 452.47C253.37 451.32 252.45 450.39 251.31 449.7C250.17 449.01 248.66 448.66 246.76 448.66H227.92V478.86H220.21V408.15H247.5ZM249.12 440.24C250.74 439.91 252.16 439.27 253.38 438.31C254.6 437.35 255.57 436.07 256.3 434.45C257.03 432.83 257.4 430.74 257.4 428.16C257.4 424.59 256.59 421.69 254.96 419.45C253.34 417.21 250.71 416.08 247.08 416.08H227.92V440.74H244C245.79 440.73 247.5 440.57 249.12 440.24Z" fill="white"/>
<path d="M296.88 408.15L308.41 451.72H308.6V408.15H325.31V478.86H305.71L293.8 435.19H293.61V478.86H276.9V408.15H296.88Z" fill="white"/>
<path d="M371.23 408.15L387.94 478.86H368.92L367.09 466.48H352.87L351.04 478.86H332.31L348.74 408.15H371.23ZM359.89 422.61L354.99 452.61H364.98L360.08 422.61H359.89Z" fill="white"/>
<path d="M419.54 408.15L426.74 450.04H426.93L434.13 408.15H459.68V478.86H442.97V426.18H442.78L433.27 478.86H420.4L410.89 426.18H410.7V478.86H393.99V408.15H419.54Z" fill="white"/>
<path d="M511.85 408.15V423.2H489.08V435.28H510.4V449.74H489.08V463.8H512.71V478.85H471.21V408.14H511.85V408.15Z" fill="white"/>
<path d="M548.93 408.15C554.12 408.15 558.15 409.12 561.03 411.07C563.91 413.02 566.07 415.62 567.51 418.89C568.95 422.16 569.83 425.92 570.15 430.18C570.47 434.44 570.63 438.88 570.63 443.5C570.63 448.12 570.47 452.56 570.15 456.82C569.83 461.08 568.95 464.84 567.51 468.11C566.07 471.38 563.91 473.99 561.03 475.93C558.15 477.87 554.11 478.85 548.93 478.85H523V408.14H548.93V408.15ZM544.41 465.59C546.14 465.59 547.52 465.34 548.54 464.85C549.56 464.35 550.35 463.32 550.89 461.73C551.43 460.15 551.79 457.9 551.95 455C552.11 452.1 552.19 448.27 552.19 443.51C552.19 438.75 552.11 434.93 551.95 432.02C551.79 429.12 551.44 426.87 550.89 425.29C550.35 423.71 549.56 422.67 548.54 422.17C547.51 421.67 546.14 421.43 544.41 421.43H540.86V465.6H544.41V465.59Z" fill="white"/>
<path d="M283.83 381.22C279.69 381.22 275.71 379.97 272.31 377.62L165.59 303.7V239.85L283.83 321.75L402.07 239.85V303.7L295.36 377.62C291.95 379.98 287.97 381.22 283.83 381.22Z" fill="#001220"/>
<path d="M398.89 245.91V302.04L293.55 375.01C290.63 377.03 287.23 378.05 283.83 378.05C280.43 378.05 277.04 377.04 274.11 375.01L168.76 302.04V245.91L283.83 325.61L398.89 245.91ZM405.24 233.79L395.27 240.69L283.83 317.89L172.38 240.69L162.41 233.79V245.91V302.04V305.37L165.14 307.26L270.49 380.23C274.42 382.96 279.03 384.4 283.82 384.4C288.61 384.4 293.22 382.96 297.15 380.23L402.49 307.26L405.22 305.37V302.04V245.91V233.79H405.24Z" fill="white"/>
<path d="M165.59 160.72V38.9C165.59 19.2 181.62 3.17001 201.32 3.17001H366.35C386.05 3.17001 402.08 19.2 402.08 38.9V160.71L283.84 242.61L165.59 160.72Z" fill="#001220"/>
<path d="M366.34 6.35C384.32 6.35 398.89 20.92 398.89 38.9V159.05L283.83 238.75L168.76 159.05V38.9C168.76 20.92 183.33 6.35 201.31 6.35H366.34ZM366.34 0H201.31C179.86 0 162.41 17.45 162.41 38.9V159.05V162.38L165.14 164.27L280.21 243.97L283.83 246.47L287.45 243.97L402.51 164.27L405.24 162.38V159.05V38.9C405.24 17.45 387.79 0 366.34 0Z" fill="white"/>
<path d="M165.59 232.21V168.36L283.83 250.26L402.06 168.36V232.21L283.83 314.11L165.59 232.21Z" fill="#005B83"/>
<path d="M398.89 174.42V230.54L283.83 310.24L168.76 230.54V174.42L283.83 254.12L398.89 174.42ZM405.24 162.3L395.27 169.2L283.83 246.4L172.38 169.2L162.41 162.3V174.42V230.54V233.87L165.14 235.76L280.21 315.46L283.83 317.96L287.45 315.46L402.51 235.76L405.24 233.87V230.54V174.42V162.3Z" fill="white"/>
<path d="M368.74 69.95C342.52 70.41 311.61 82.2 283.78 111.15C297.97 86.96 309.5 79.07 320.84 72.64C321.36 70.5 312.33 27.2 310.72 26.03C309.34 25.03 307.28 26.12 305.97 27.06C301.97 29.92 295.59 39.37 290.39 47.99C286.89 53.1 283.49 58 280.67 61.3C276.75 65.88 270.91 71.97 266.66 76.33C254.65 88.64 241.28 99.43 227.03 107.86C227.03 107.86 261.67 76.13 265.02 60.6C265.02 60.6 221.48 28.59 218.92 26.68C216.36 24.77 214.69 26 214.69 26L224.14 80.45L194.32 133.03C220.54 132.57 249.02 119.18 273.99 96.18C272.64 100.62 255.5 121.17 242.73 131.51C242.21 133.65 250.73 175.77 252.34 176.95C253.72 177.95 255.78 176.86 257.09 175.92C261.09 173.06 267.47 163.61 272.67 154.99C276.17 149.88 279.57 144.98 282.39 141.68C286.31 137.1 292.08 130.43 296.33 126.07C308.34 113.76 321.78 103.54 336.03 95.12C336.03 95.12 304.7 121.96 298.04 142.38C297.88 142.86 341.63 174.38 344.14 176.3C346.65 178.23 348.37 176.98 348.37 176.98L338.92 122.53L368.74 69.95Z" fill="white"/>
<mask id="mask0_221_40" style="mask-type:luminance" maskUnits="userSpaceOnUse" x="194" y="25" width="175" height="153">
<path d="M368.74 69.95C342.52 70.41 311.64 82.17 283.81 111.12C298 86.93 309.5 79.07 320.84 72.64C321.36 70.5 312.33 27.2 310.72 26.03C309.34 25.03 307.28 26.12 305.97 27.06C301.97 29.92 295.59 39.37 290.39 47.99C286.89 53.1 283.49 58 280.67 61.3C276.75 65.88 270.91 71.97 266.66 76.33C254.65 88.64 241.28 99.43 227.03 107.86C227.03 107.86 261.67 76.13 265.02 60.6C265.02 60.6 221.48 28.59 218.92 26.68C216.36 24.77 214.69 26 214.69 26L224.14 80.45L194.32 133.03C220.54 132.57 249.02 119.18 273.99 96.18C272.64 100.62 255.5 121.17 242.73 131.51C242.21 133.65 250.73 175.77 252.34 176.95C253.72 177.95 255.78 176.86 257.09 175.92C261.09 173.06 267.47 163.61 272.67 154.99C276.17 149.88 279.57 144.98 282.39 141.68C286.31 137.1 292.08 130.43 296.33 126.07C308.34 113.76 321.78 103.54 336.03 95.12C336.03 95.12 304.7 121.96 298.04 142.38C297.88 142.86 341.63 174.38 344.14 176.3C346.65 178.23 348.37 176.98 348.37 176.98L338.92 122.53L368.74 69.95Z" fill="white"/>
</mask>
<g mask="url(#mask0_221_40)">
<path d="M248.83 196.09C248.83 196.09 280.66 61.3 325.11 8.98001L388.08 38.26L381.49 125.9L363.76 168.96L346.03 189.22L248.83 196.09Z" fill="url(#paint0_linear_221_40)"/>
</g>
</g>
<defs>
<linearGradient id="paint0_linear_221_40" x1="256.64" y1="89.806" x2="350.485" y2="129.192" gradientUnits="userSpaceOnUse">
<stop stop-color="#001220"/>
<stop offset="0.0641" stop-color="#243440"/>
<stop offset="0.2092" stop-color="#717B83"/>
<stop offset="0.3387" stop-color="#AEB4B8"/>
<stop offset="0.4479" stop-color="#DADDDF"/>
<stop offset="0.5324" stop-color="#F5F6F6"/>
<stop offset="0.582" stop-color="white"/>
</linearGradient>
<clipPath id="clip0_221_40">
<rect width="570.64" height="478.86" fill="white"/>
</clipPath>
</defs>
</svg>
